<?xml version="1.0" encoding="UTF-8"?>
<svg version="1.1" xmlns="http://www.w3.org/2000/svg" width="240" height="240">
<path d="M0 0 C0.66019135 0.00215515 1.32038269 0.0043103 2.00057983 0.00653076 C36.30152069 0.18603264 65.17676104 14.32351004 89.296875 38.3515625 C110.05442635 60.52062735 120.69639134 89.97328973 120.5625 120.0625 C120.55926727 121.05278702 120.55926727 121.05278702 120.55596924 122.06307983 C120.37646736 156.36402069 106.23898996 185.23926104 82.2109375 209.359375 C60.04187265 230.11692635 30.58921027 240.75889134 0.5 240.625 C-0.16019135 240.62284485 -0.82038269 240.6206897 -1.50057983 240.61846924 C-35.80152069 240.43896736 -64.67676104 226.30148996 -88.796875 202.2734375 C-109.55442635 180.10437265 -120.19639134 150.65171027 -120.0625 120.5625 C-120.06034485 119.90230865 -120.0581897 119.24211731 -120.05596924 118.56192017 C-119.87646736 84.26097931 -105.73898996 55.38573896 -81.7109375 31.265625 C-59.54187265 10.50807365 -30.08921027 -0.13389134 0 0 Z M-54.75 25.3125 C-56.24466797 26.14587891 -56.24466797 26.14587891 -57.76953125 26.99609375 C-65.31815426 31.49934954 -71.45771591 37.24655707 -77.75 43.3125 C-78.40871094 43.90804687 -79.06742188 44.50359375 -79.74609375 45.1171875 C-99.15472994 63.13629085 -108.7118527 91.95812189 -109.7109375 117.72265625 C-110.12661378 138.35169709 -104.84577125 157.44153765 -94.75 175.3125 C-94.19441406 176.30894531 -93.63882813 177.30539063 -93.06640625 178.33203125 C-88.56315046 185.88065426 -82.81594293 192.02021591 -76.75 198.3125 C-76.15445313 198.97121094 -75.55890625 199.62992188 -74.9453125 200.30859375 C-56.92620915 219.71722994 -28.10437811 229.2743527 -2.33984375 230.2734375 C18.46494188 230.69265505 37.13250247 225.20317467 55.25 215.3125 C55.91 214.9825 56.57 214.6525 57.25 214.3125 C55.63095817 209.26780261 52.61956719 205.4499982 49.5 201.25 C48.31511585 199.63245487 47.13156835 198.01392994 45.94921875 196.39453125 C45.33739746 195.55744629 44.72557617 194.72036133 44.09521484 193.85791016 C41.11870804 189.7519218 38.21346755 185.59705375 35.3125 181.4375 C34.44407471 180.19347412 34.44407471 180.19347412 33.55810547 178.92431641 C32.37995854 177.2358021 31.20222507 175.54699924 30.02490234 173.85791016 C27.06304139 169.61026747 24.09427369 165.36746288 21.125 161.125 C20.25331177 159.87940308 20.25331177 159.87940308 19.36401367 158.60864258 C13.68211903 150.49381538 7.96908544 142.40113958 2.25 134.3125 C0.29114051 131.54203809 -1.66726237 128.7712548 -3.625 126 C-4.35565674 124.96588989 -4.35565674 124.96588989 -5.10107422 123.91088867 C-8.4718947 119.13546825 -11.82484668 114.3478087 -15.17114258 109.55517578 C-17.51083441 106.20633373 -19.85624815 102.86153322 -22.20361328 99.51806641 C-23.17042181 98.13913552 -24.13526863 96.75882471 -25.09716797 95.37646484 C-26.20348977 93.78766009 -27.3199723 92.20594286 -28.4375 90.625 C-29.01886719 89.79613281 -29.60023437 88.96726562 -30.19921875 88.11328125 C-31.71816662 86.03838504 -31.71816662 86.03838504 -34.75 85.3125 C-34.76030746 86.41275009 -34.77061493 87.51300018 -34.78123474 88.64659119 C-34.87879302 98.99178674 -34.98150995 109.33691977 -35.08933926 119.68201351 C-35.14461407 125.00112221 -35.19804122 130.32023635 -35.24731445 135.6394043 C-35.29489094 140.76818867 -35.34723104 145.8969039 -35.40294075 151.02560616 C-35.42339484 152.98689628 -35.44210275 154.94820538 -35.45907402 156.90952873 C-35.48305069 159.64670584 -35.51311404 162.383751 -35.54467773 165.12084961 C-35.5504332 165.94011932 -35.55618866 166.75938904 -35.56211853 167.60348511 C-35.63594784 173.19844784 -35.63594784 173.19844784 -36.75 174.3125 C-39.75 174.4375 -39.75 174.4375 -42.75 174.3125 C-44.64751904 172.41498096 -43.87671315 169.63192229 -43.88552856 167.10690308 C-43.88249222 165.76814621 -43.88249222 165.76814621 -43.87939453 164.40234375 C-43.88202301 163.00001999 -43.88202301 163.00001999 -43.88470459 161.56936646 C-43.88912474 158.46289238 -43.88618454 155.35647471 -43.8828125 152.25 C-43.88348549 150.10148101 -43.88445548 147.95296209 -43.88571167 145.80444336 C-43.88718886 141.29507728 -43.88503339 136.78573097 -43.88037109 132.27636719 C-43.8746738 126.48201423 -43.87795269 120.68770758 -43.88394356 114.89335632 C-43.88754859 110.45487109 -43.88641085 106.01639693 -43.88381577 101.57791138 C-43.88314634 99.44076533 -43.88397547 97.30361829 -43.88629532 95.16647339 C-43.8888209 92.18517374 -43.88498259 89.2039502 -43.87939453 86.22265625 C-43.88141876 85.33015167 -43.88344299 84.43764709 -43.88552856 83.51809692 C-43.86426232 77.42676232 -43.86426232 77.42676232 -42.75 76.3125 C-37.37170578 75.06157834 -32.03657641 74.34790216 -26.75 76.3125 C-21.7415541 80.34398315 -18.5933358 86.28335116 -15.32666016 91.72509766 C-12.80143542 95.86915646 -10.01460556 99.82607444 -7.25 103.8125 C-6.16476814 105.40714634 -5.08013251 107.0021986 -3.99609375 108.59765625 C-0.32545601 113.96192558 3.48454461 119.22039665 7.30688477 124.47705078 C13.13356143 132.50127176 18.80478871 140.63197386 24.47509766 148.76708984 C27.43695861 153.01473253 30.40572631 157.25753712 33.375 161.5 C33.95612549 162.33039795 34.53725098 163.1607959 35.13598633 164.01635742 C39.35380078 170.04019941 43.58211008 176.05654611 47.83227539 182.05761719 C50.4251556 185.71928166 53.00216423 189.39089527 55.55859375 193.078125 C56.10306152 193.85969971 56.6475293 194.64127441 57.20849609 195.4465332 C58.25352201 196.94726676 59.2944279 198.45088034 60.33056641 199.95776367 C60.80026855 200.6304126 61.2699707 201.30306152 61.75390625 201.99609375 C62.16455322 202.58962646 62.5752002 203.18315918 62.99829102 203.79467773 C64.35950304 205.594228 64.35950304 205.594228 67.25 207.3125 C70.60836928 204.33951736 73.93680223 201.33573354 77.25 198.3125 C77.95253906 197.67828125 78.65507812 197.0440625 79.37890625 196.390625 C99.12242128 177.72402897 109.17778617 149.54539042 110.2109375 122.90234375 C110.62661378 102.27330291 105.34577125 83.18346235 95.25 65.3125 C94.69441406 64.31605469 94.13882813 63.31960937 93.56640625 62.29296875 C89.06315046 54.74434574 83.31594293 48.60478409 77.25 42.3125 C76.35667969 41.32443359 76.35667969 41.32443359 75.4453125 40.31640625 C57.42620915 20.90777006 28.60437811 11.3506473 2.83984375 10.3515625 C-17.78919709 9.93588622 -36.87903765 15.21672875 -54.75 25.3125 Z " fill="#000000" transform="translate(119.75,-0.3125)"/>
<path d="M0 0 C3 0.25 3 0.25 5 2.25 C5.25396729 4.98266602 5.25396729 4.98266602 5.25878906 8.50390625 C5.26509338 9.81866943 5.27139771 11.13343262 5.27789307 12.48803711 C5.2743134 13.9295261 5.27021146 15.37101387 5.265625 16.8125 C5.26697168 18.28458724 5.26891223 19.75667405 5.27142334 21.22875977 C5.27437449 24.31563548 5.27007732 27.40239553 5.26074219 30.48925781 C5.24934756 34.45072129 5.25590709 38.41191378 5.26788712 42.37336731 C5.275106 45.41363577 5.27281768 48.45383973 5.26763153 51.49411011 C5.26629511 52.9549869 5.2679425 54.4158695 5.27259064 55.8767395 C5.27765606 57.91652315 5.26856979 59.95632726 5.25878906 61.99609375 C5.25640228 63.73910767 5.25640228 63.73910767 5.25396729 65.51733398 C5 68.25 5 68.25 3 70.25 C0 70.5 0 70.5 -3 70.25 C-5.7655493 67.4844507 -5.25348601 65.86880213 -5.25878906 61.99609375 C-5.26509338 60.68133057 -5.27139771 59.36656738 -5.27789307 58.01196289 C-5.2743134 56.5704739 -5.27021146 55.12898613 -5.265625 53.6875 C-5.26697168 52.21541276 -5.26891223 50.74332595 -5.27142334 49.27124023 C-5.27437449 46.18436452 -5.27007732 43.09760447 -5.26074219 40.01074219 C-5.24934756 36.04927871 -5.25590709 32.08808622 -5.26788712 28.12663269 C-5.275106 25.08636423 -5.27281768 22.04616027 -5.26763153 19.00588989 C-5.26629511 17.5450131 -5.2679425 16.0841305 -5.27259064 14.6232605 C-5.27765606 12.58347685 -5.26856979 10.54367274 -5.25878906 8.50390625 C-5.25640228 6.76089233 -5.25640228 6.76089233 -5.25396729 4.98266602 C-4.88479111 1.01036234 -3.93953185 0.32829432 0 0 Z " fill="#000000" transform="translate(155,74.75)"/>
</svg>
