<?xml version="1.0" encoding="UTF-8"?>
<svg version="1.1" xmlns="http://www.w3.org/2000/svg" width="512" height="512">
<path d="M0 0 C3.141313 1.6837793 6.16010419 3.49810478 9.18554688 5.38208008 C10.90818203 6.41566117 12.63083807 7.44920937 14.35473633 8.48068237 C16.13307873 9.54825866 17.90569454 10.62488184 19.67773438 11.70288086 C25.124401 15.00460295 30.65952509 18.15321912 36.18554688 21.31958008 C38.3500054 22.56759141 40.5140669 23.81629156 42.67773438 25.06567383 C47.03620076 27.58027443 51.39566879 30.09312669 55.75585938 32.60473633 C67.24003508 39.22180899 78.70751581 45.86591985 90.15136719 52.55249023 C101.80213872 59.35545631 113.49458432 66.08600194 125.18554688 72.81958008 C138.84543927 80.68719169 152.50065006 88.56153884 166.10302734 96.52832031 C171.49277032 99.68120813 176.89861542 102.80275378 182.32617188 105.88989258 C184.11474365 106.91028252 185.90309046 107.93106582 187.69140625 108.9519043 C189.39513698 109.92158083 191.10279927 110.88433924 192.81054688 111.84692383 C193.84695313 112.43860352 194.88335937 113.0302832 195.95117188 113.63989258 C196.86672852 114.15825684 197.78228516 114.67662109 198.72558594 115.21069336 C202.41538406 117.62392973 204.77694471 119.59377358 206.18554688 123.81958008 C206.27785372 125.29966105 206.31464081 126.78355335 206.31697464 128.2665081 C206.32081578 129.18204739 206.32465693 130.09758669 206.32861447 131.04086959 C206.32774799 132.04814892 206.32688151 133.05542825 206.32598877 134.0932312 C206.33044545 135.69662045 206.33044545 135.69662045 206.33499217 137.33240139 C206.34369851 140.93213935 206.34518905 144.53184413 206.34667969 148.1315918 C206.35130644 150.70517041 206.3563309 153.27874832 206.36172485 155.85232544 C206.37530977 162.85639063 206.38133299 169.8604501 206.38573551 176.86452627 C206.38849736 181.23675375 206.39273458 185.60897901 206.39723969 189.98120499 C206.40943199 202.08366444 206.41973175 214.18612211 206.42311478 226.28858757 C206.42333434 227.06323855 206.42355391 227.83788952 206.42378013 228.63601477 C206.42399841 229.41252954 206.42421668 230.18904432 206.42444158 230.98908985 C206.42488504 232.56263216 206.42533161 234.13617448 206.42578125 235.7097168 C206.42600268 236.49024981 206.42622411 237.27078282 206.42645225 238.07496835 C206.43040147 250.72641867 206.44785943 263.37781144 206.47114077 276.02923952 C206.49484355 289.01433343 206.50731612 301.99939845 206.50848269 314.98451436 C206.5094 322.27680605 206.51516634 329.56902274 206.53330231 336.86129379 C206.55029522 343.7181537 206.55196397 350.57486886 206.5431633 357.43174362 C206.54239015 359.95168946 206.54677197 362.47164281 206.55662155 364.99156952 C206.56925798 368.42520551 206.56350924 371.85832984 206.55303955 375.29196167 C206.56512416 376.7961885 206.56512416 376.7961885 206.5774529 378.33080375 C206.54187088 383.30244041 206.47632917 386.80756932 203.18554688 390.81958008 C201.38305664 392.35668945 201.38305664 392.35668945 199.31445312 393.66333008 C198.51539551 394.16864258 197.71633789 394.67395508 196.89306641 395.19458008 C192.27194486 397.96808639 187.60802337 400.66005466 182.91424561 403.30862427 C179.80392308 405.06409594 176.70016504 406.83111534 173.59570312 408.59692383 C172.65374084 409.13221962 172.65374084 409.13221962 171.69274902 409.67832947 C165.78996135 413.03624597 159.92110145 416.45102035 154.06054688 419.88208008 C140.37454767 427.88898663 126.63453778 435.80133339 112.89453125 443.71508789 C101.30872921 450.38914319 89.73001335 457.07422092 78.18554688 463.81958008 C64.41761472 471.86409625 50.60039091 479.82256617 36.78173828 487.77954102 C34.51090997 489.08725285 32.24039934 490.39551651 29.97021484 491.7043457 C27.76116955 492.97660111 25.55058621 494.24619016 23.33837891 495.51293945 C18.5502652 498.26157633 13.79456468 501.03419897 9.12695312 503.98364258 C8.36648682 504.45697021 7.60602051 504.93029785 6.82250977 505.41796875 C5.46455092 506.26892319 4.11713079 507.13711935 2.78491211 508.02783203 C-2.28612359 511.18403593 -6.92551136 512.0074668 -12.81445312 510.81958008 C-17.07257319 509.0336666 -20.90058034 506.69454427 -24.81445312 504.25708008 C-26.52549212 503.22979201 -28.23655363 502.20253938 -29.94889832 501.1774292 C-31.72261401 500.11217568 -33.49062928 499.03789365 -35.25830078 497.96264648 C-40.94501264 494.51788449 -46.7311906 491.24589687 -52.50195312 487.94458008 C-55.66460414 486.11913208 -58.82484206 484.28957855 -61.984375 482.45874023 C-63.77353245 481.42247358 -65.56376067 480.3880515 -67.35546875 479.35620117 C-69.49270813 478.12328233 -71.62344867 476.87999884 -73.75195312 475.63208008 C-74.87472656 474.97852539 -75.9975 474.3249707 -77.15429688 473.65161133 C-80.57627454 471.29491892 -82.47608871 469.55369769 -83.28320312 465.41723633 C-83.36805734 458.53343814 -83.36805734 458.53343814 -80.43945312 454.75708008 C-76.95636125 452.18622655 -74.65923968 451.31138236 -70.25878906 451.3815918 C-64.94674334 452.33343059 -60.47714949 455.60033873 -55.93945312 458.38208008 C-54.22329216 459.40394739 -52.50711352 460.42578629 -50.78993225 461.44593811 C-49.00284401 462.51037022 -47.22025541 463.58205987 -45.43798828 464.65454102 C-39.54863409 468.18723925 -33.58260548 471.58787398 -27.62695312 475.00708008 C-25.5082263 476.22932516 -23.38972234 477.4519567 -21.27148438 478.67504883 C-20.31967285 479.21693848 -19.36786133 479.75882812 -18.38720703 480.31713867 C-16.81236875 481.23681554 -15.25625492 482.19088097 -13.73779297 483.20092773 C-10.96483979 485.01596541 -9.39029488 485.89522031 -6.04882812 485.45629883 C-1.26885217 483.03744626 3.33581159 480.37633777 7.93554688 477.63208008 C10.09922236 476.3553823 12.26329853 475.07936337 14.42773438 473.80395508 C15.54374023 473.14459961 16.65974609 472.48524414 17.80957031 471.8059082 C23.20681017 468.63032652 28.63318688 465.50581448 34.06054688 462.38208008 C36.24546063 461.1229966 38.43035637 459.86388185 40.61523438 458.60473633 C41.70030273 457.97970215 42.78537109 457.35466797 43.90332031 456.71069336 C49.33214626 453.58277862 54.75876694 450.45104277 60.18554688 447.31958008 C66.70787962 443.55594088 73.2306845 439.79313386 79.75585938 436.03442383 C90.24786781 429.98902849 100.73036364 423.92847789 111.18554688 417.81958008 C119.46336808 412.98290121 127.75496559 408.17093972 136.06054688 403.38208008 C137.12772949 402.76671387 138.19491211 402.15134766 139.29443359 401.51733398 C144.3715644 398.59094809 149.45008418 395.66699405 154.53060913 392.74650574 C156.31056027 391.72308753 158.09015357 390.69904995 159.86962891 389.67480469 C162.09904025 388.39179381 164.32914063 387.1099792 166.56005859 385.82958984 C167.57342285 385.2462085 168.58678711 384.66282715 169.63085938 384.06176758 C170.9536792 383.30162354 170.9536792 383.30162354 172.30322266 382.52612305 C173.72997314 381.68138428 173.72997314 381.68138428 175.18554688 380.81958008 C175.84289951 380.51611583 176.50025215 380.21265159 177.17752457 379.89999145 C181.47519392 377.72955072 181.47519392 377.72955072 183.9498806 373.7880336 C184.26863516 371.20770499 184.32872682 368.7254285 184.30908203 366.1252594 C184.33285101 365.14264553 184.35661999 364.16003165 184.38110924 363.1476416 C184.45055127 359.85096959 184.46266157 356.55662276 184.47460938 353.25927734 C184.51164119 350.89699851 184.55183941 348.5347675 184.5949707 346.17259216 C184.71089917 339.08082945 184.75903761 331.98956461 184.7981348 324.89702335 C184.81877986 321.55205598 184.84909977 318.20718197 184.87908936 314.86228752 C184.97663139 303.73350624 185.05901353 292.60484738 185.08609009 281.47564793 C185.08784662 280.76368348 185.08960315 280.05171903 185.0914129 279.3181799 C185.09315912 278.60455942 185.09490535 277.89093894 185.09670448 277.15569359 C185.10025214 275.7097527 185.10382465 274.26381186 185.10742188 272.81787109 C185.11007903 271.74202771 185.11007903 271.74202771 185.11278987 270.64445012 C185.14433326 259.038482 185.28381586 247.43654535 185.47029805 235.83213294 C185.66047081 223.90107696 185.75972519 211.97203741 185.76903343 200.03944248 C185.77634627 193.34529293 185.82431238 186.65718365 185.96759033 179.96438789 C188.14870103 154.03821357 188.14870103 154.03821357 180.81881714 130.24514389 C175.28082059 125.03810735 169.26753801 122.4697163 161.97485352 120.59623528 C158.15391318 119.53233175 155.31916709 117.80581829 151.99804688 115.66333008 C150.06082158 114.54826936 148.12332902 113.43367281 146.18554688 112.31958008 C137.83718162 107.51172635 129.50311083 102.6805208 121.18554688 97.81958008 C108.54811234 90.43543115 95.86879389 83.12467873 83.18554688 75.81958008 C69.51882218 67.9480333 55.86346717 60.05871374 42.24609375 52.10205078 C33.59457219 47.05033312 24.93004946 42.0210384 16.23730469 37.04052734 C11.67128744 34.42346238 7.11735328 31.80378344 2.64648438 29.02661133 C2.00275879 28.63393066 1.3590332 28.24125 0.69580078 27.83666992 C-0.90523306 26.85473211 -2.49342877 25.85193877 -4.08007812 24.84692383 C-6.75834968 23.58318212 -6.75834968 23.58318212 -9.50195312 24.24926758 C-14.36287919 26.55362168 -18.94694715 29.25222018 -23.56445312 32.00708008 C-25.72812861 33.28377786 -27.89220478 34.55979678 -30.05664062 35.83520508 C-31.17264648 36.49456055 -32.28865234 37.15391602 -33.43847656 37.83325195 C-38.83571697 41.00883396 -44.26211963 44.13329877 -49.68945312 47.25708008 C-51.8717517 48.51488059 -54.05404333 49.77269316 -56.23632812 51.03051758 C-59.52595602 52.92552307 -62.81571241 54.82030538 -66.10546875 56.71508789 C-77.69127079 63.38914319 -89.26998665 70.07422092 -100.81445312 76.81958008 C-114.54500501 84.84225519 -128.32523279 92.77816267 -142.10546875 100.71508789 C-154.02254199 107.57997352 -165.93271947 114.45616069 -177.81445312 121.38208008 C-178.77496582 121.94161377 -179.73547852 122.50114746 -180.72509766 123.07763672 C-181.64145996 123.61251709 -182.55782227 124.14739746 -183.50195312 124.69848633 C-184.28957031 125.15811768 -185.0771875 125.61774902 -185.88867188 126.09130859 C-186.85417969 126.66163818 -187.8196875 127.23196777 -188.81445312 127.81958008 C-190.01286583 128.15795804 -190.01286583 128.15795804 -191.23548889 128.50317192 C-194.70262175 129.81039324 -196.42230326 130.95139964 -198.81445312 133.81958008 C-200.96868446 141.02440588 -200.3069964 149.07224618 -200.29882812 156.50927734 C-200.33202773 158.87333486 -200.36929952 161.23733818 -200.41033936 163.60127258 C-200.50726869 170.02327796 -200.53889595 176.44400775 -200.55288696 182.86667371 C-200.56237844 186.88146146 -200.5891535 190.89601374 -200.61987305 194.9106884 C-200.71943186 208.20120966 -200.77480895 221.49093158 -200.77696228 234.7818265 C-200.77708817 235.49787161 -200.77721405 236.21391671 -200.77734375 236.95166016 C-200.77745956 237.66858589 -200.77757538 238.38551162 -200.7776947 239.12416237 C-200.78233576 250.73053697 -200.89367732 262.3331316 -201.05316973 273.93831552 C-201.21584624 285.87060855 -201.29567457 297.80104775 -201.29110336 309.73447651 C-201.29028283 316.42859728 -201.32550126 323.11789162 -201.44616699 329.81106758 C-201.55694523 336.11335435 -201.56135338 342.40707056 -201.48575592 348.70979118 C-201.47588088 351.01528661 -201.50323234 353.32130475 -201.57155609 355.62580872 C-201.92401209 366.04257628 -201.92401209 366.04257628 -198.81445312 375.81958008 C-193.41275013 381.31841341 -186.50171056 384.54085172 -179.52572632 387.61178291 C-176.29289747 389.05191869 -173.20392757 390.69283929 -170.10028839 392.38953024 C-154.87099797 400.5676081 -134.80889139 405.85933843 -117.52148438 402.35473633 C-114.07026158 401.11111873 -111.47762882 399.11003656 -109.65429688 395.90942383 C-106.55284285 388.19185219 -105.65800007 379.89168221 -105.24029541 371.65132141 C-105.17919378 370.48870394 -105.17919378 370.48870394 -105.11685777 369.30259925 C-104.66057382 359.79158367 -104.67754579 350.28139612 -104.68847656 340.76171875 C-104.68707776 338.71794089 -104.68517584 336.67416333 -104.68281555 334.63038635 C-104.67836011 330.26975967 -104.67646341 325.9091423 -104.67635345 321.54851341 C-104.67520325 314.6524611 -104.66229811 307.75646108 -104.64678955 300.86042786 C-104.6442167 299.69201754 -104.64164384 298.52360723 -104.63899302 297.31979054 C-104.63372828 294.93332095 -104.6284428 292.54685141 -104.623137 290.16038191 C-104.58810943 274.13197713 -104.56148816 258.10364171 -104.56396484 242.07519531 C-104.56555153 231.22232027 -104.54957782 220.36962767 -104.51325822 209.51681119 C-104.4947948 203.78404948 -104.48546086 198.05159266 -104.49773407 192.3188076 C-104.50913986 186.94144367 -104.49753974 181.56462862 -104.46809959 176.18733788 C-104.46144391 174.21405023 -104.46335155 172.24071257 -104.47439766 170.26744461 C-104.48821527 167.57637276 -104.47144002 164.88716895 -104.44696045 162.19621277 C-104.45831583 161.41373789 -104.46967121 160.631263 -104.48137069 159.82507676 C-104.40986152 155.7906014 -103.9844109 154.02800629 -101.39992142 150.85854053 C-97.80807273 148.02592508 -95.5535534 147.42191068 -90.91992188 147.46411133 C-87.15876197 148.09911235 -85.41154264 150.09580327 -82.81445312 152.81958008 C-81.52719784 156.68134594 -81.66980502 160.32859264 -81.67401123 164.3531189 C-81.67104011 165.23516326 -81.66806899 166.11720762 -81.66500783 167.02598059 C-81.65630752 169.99413654 -81.65481137 172.96225222 -81.65332031 175.93041992 C-81.6486926 178.05439846 -81.643668 180.17837617 -81.63827515 182.30235291 C-81.62513325 188.08645836 -81.61870117 193.87055218 -81.61426449 199.65467024 C-81.61133294 203.27456919 -81.60722768 206.89446498 -81.60276031 210.51436234 C-81.58907254 221.85679719 -81.57941561 233.1992248 -81.57555842 244.54166734 C-81.57109275 257.60047 -81.55361988 270.65916721 -81.52455783 283.71793783 C-81.50284724 293.82779919 -81.49284895 303.93763112 -81.49151731 314.04751551 C-81.49047475 320.07606409 -81.48468663 326.10451371 -81.46669769 332.13303757 C-81.45005737 337.8211712 -81.44813788 343.50913329 -81.4568367 349.19728279 C-81.45759897 351.26866812 -81.45337345 353.34006328 -81.44337845 355.41142464 C-81.23742863 400.81183557 -81.23742863 400.81183557 -95.52539062 415.58911133 C-107.33530037 426.67548905 -120.56911164 426.34276959 -135.91162109 425.95141602 C-158.946122 424.90527384 -180.30887508 415.05785917 -199.49804688 402.90551758 C-201.93277228 401.37413552 -204.37375704 399.88289609 -206.84960938 398.42114258 C-207.53015381 398.01887451 -208.21069824 397.61660645 -208.91186523 397.20214844 C-210.23245279 396.42378889 -211.55480025 395.64840512 -212.87915039 394.87646484 C-220.25016185 390.51245389 -220.25016185 390.51245389 -221.81445312 385.81958008 C-221.90675997 384.33949911 -221.94354706 382.8556068 -221.94588089 381.37265205 C-221.94972203 380.45711276 -221.95356318 379.54157347 -221.95752072 378.59829056 C-221.956221 377.08737157 -221.956221 377.08737157 -221.95489502 375.54592896 C-221.95786614 374.47700279 -221.96083726 373.40807663 -221.96389842 372.30675876 C-221.97260476 368.7070208 -221.9740953 365.10731603 -221.97558594 361.50756836 C-221.98021269 358.93398975 -221.98523715 356.36041183 -221.9906311 353.78683472 C-222.00421602 346.78276953 -222.01023924 339.77871006 -222.01464176 332.77463388 C-222.01740361 328.40240641 -222.02164083 324.03018115 -222.02614594 319.65795517 C-222.03833824 307.55549572 -222.048638 295.45303804 -222.05202103 283.35057259 C-222.05224059 282.57592161 -222.05246016 281.80127064 -222.05268638 281.00314539 C-222.05301379 279.83837322 -222.05301379 279.83837322 -222.05334783 278.65007031 C-222.05379129 277.07652799 -222.05423786 275.50298568 -222.0546875 273.92944336 C-222.05490893 273.14891035 -222.05513036 272.36837733 -222.0553585 271.5641918 C-222.05930772 258.91274148 -222.07676568 246.26134872 -222.10004702 233.60992064 C-222.1237498 220.62482672 -222.13622237 207.6397617 -222.13738894 194.6546458 C-222.13830625 187.3623541 -222.14407259 180.07013742 -222.16220856 172.77786636 C-222.17920147 165.92100646 -222.18087022 159.0642913 -222.17206955 152.20741653 C-222.1712964 149.68747069 -222.17567822 147.16751735 -222.1855278 144.64759064 C-222.19816423 141.21395465 -222.19241549 137.78083031 -222.1819458 134.34719849 C-222.19000221 133.3443806 -222.19805861 132.34156271 -222.20635915 131.3083564 C-222.17077713 126.33671974 -222.10523542 122.83159083 -218.81445312 118.81958008 C-217.01196289 117.2824707 -217.01196289 117.2824707 -214.94335938 115.97583008 C-214.14430176 115.47051758 -213.34524414 114.96520508 -212.52197266 114.44458008 C-207.90085111 111.67107376 -203.23692962 108.97910549 -198.54315186 106.33053589 C-195.43282933 104.57506422 -192.32907129 102.80804481 -189.22460938 101.04223633 C-188.59663452 100.68537247 -187.96865967 100.32850861 -187.32165527 99.96083069 C-181.4188676 96.60291418 -175.5500077 93.18813981 -169.68945312 89.75708008 C-156.00345392 81.75017352 -142.26344403 73.83782677 -128.5234375 65.92407227 C-116.93763546 59.25001696 -105.3589196 52.56493923 -93.81445312 45.81958008 C-80.04652097 37.77506391 -66.22929716 29.81659399 -52.41064453 21.85961914 C-50.13981622 20.5519073 -47.86930559 19.24364364 -45.59912109 17.93481445 C-43.3900758 16.66255905 -41.17949246 15.39297 -38.96728516 14.1262207 C-34.17917145 11.37758382 -29.42347093 8.60496119 -24.75585938 5.65551758 C-23.99539307 5.18218994 -23.23492676 4.7088623 -22.45141602 4.22119141 C-21.09345717 3.37023696 -19.74603704 2.50204081 -18.41381836 1.61132812 C-12.4222585 -2.11780843 -6.58212715 -2.76063366 0 0 Z " fill="#4C994F" transform="translate(263.814453125,1.180419921875)"/>
<path d="M0 0 C11.65689007 9.51285493 21.31159073 20.55172045 24.375 35.6875 C25.64077449 48.77586926 25.64077449 48.77586926 22.46875 53.56640625 C19.49659285 56.57737889 17.69560753 56.90138936 13.5625 57.0625 C12.71042969 57.11148438 11.85835937 57.16046875 10.98046875 57.2109375 C7.1354684 56.43847866 5.74918132 54.75346864 3.375 51.6875 C2.44140625 48.26953125 2.44140625 48.26953125 1.9375 44.5 C0.15008903 33.61256048 -5.08585942 25.62284261 -13.625 18.6875 C-31.17365059 6.28197381 -53.64680768 2.1774085 -74.71459961 5.51000977 C-89.62090324 8.18302451 -107.14635588 14.13796863 -116.625 26.6875 C-121.17165459 33.95181403 -124.35140435 39.97064784 -123.625 48.6875 C-121.14882444 56.69958399 -115.51149438 61.39620854 -108.484375 65.5390625 C-92.78651855 73.81035457 -76.49084044 76.49484901 -58.9375 77.125 C-32.0314057 78.15525045 -6.15255193 83.90728103 13.375 103.6875 C13.95894531 104.24953125 14.54289063 104.8115625 15.14453125 105.390625 C23.02850925 113.61391345 25.12328197 123.50031389 24.96435547 134.53808594 C24.21157378 150.91679065 15.67463878 163.19110824 4.140625 174.3359375 C-0.72381864 178.47208873 -6.03011035 181.64071028 -11.625 184.6875 C-12.91470703 185.39519531 -12.91470703 185.39519531 -14.23046875 186.1171875 C-39.44737173 198.706091 -71.3327192 199.1669067 -97.73828125 190.3671875 C-116.06027928 183.77347762 -133.53029758 171.4696737 -142.12109375 153.5703125 C-145.73137734 145.2042729 -149.37494035 134.62099889 -145.80078125 125.609375 C-144.34196141 123.3750487 -143.02446021 121.8872301 -140.625 120.6875 C-135.71857845 120.07962476 -131.88590924 119.89943173 -127.625 122.5625 C-125.34535896 126.12443912 -124.80375409 128.88542197 -124.13671875 133.00390625 C-122.24238992 142.93828721 -116.8470966 151.77221948 -108.9765625 158.1171875 C-89.33063503 171.23622877 -66.1366907 175.42496072 -42.97875977 171.16796875 C-28.34779344 168.14858887 -14.19682024 161.50005169 -4.625 149.6875 C0.03725462 142.55485591 2.36755786 136.27020616 1.375 127.6875 C-2.84185841 117.23702482 -12.52108741 111.47386158 -22.5078125 107.2265625 C-34.59917693 102.47284228 -47.41840395 100.78411951 -60.32373047 100.39746094 C-87.18071944 99.56431491 -115.52561971 94.2463081 -135.1640625 74.37890625 C-144.24415024 64.44846108 -147.28441417 54.94625475 -146.97265625 41.5 C-145.42094209 24.48344924 -135.68867546 11.42737703 -123.0625 0.5625 C-88.86831259 -25.59843163 -34.33823022 -25.72396831 0 0 Z " fill="#48974C" transform="translate(359.625,167.3125)"/>
</svg>
