<?xml version="1.0" encoding="UTF-8"?>
<svg version="1.1" xmlns="http://www.w3.org/2000/svg" width="512" height="512">
<path d="M0 0 C2.50908004 1.97442067 4.94720435 4.01345262 7.37890625 6.08203125 C8.37664062 6.86126953 8.37664062 6.86126953 9.39453125 7.65625 C23.98619787 19.43042001 33.71986249 37.26174037 41.75390625 53.83203125 C42.52238892 55.41238159 42.52238892 55.41238159 43.30639648 57.0246582 C46.25959796 63.25701617 48.63664881 69.40616089 50.37890625 76.08203125 C51.65894531 75.77523437 52.93898438 75.4684375 54.2578125 75.15234375 C59.25662887 74.04540023 64.22183391 73.42291932 69.31640625 72.95703125 C70.2288208 72.87356445 71.14123535 72.79009766 72.08129883 72.70410156 C101.17733084 70.22956269 132.88742098 72.68813763 156.87890625 91.01953125 C168.81792207 101.33596271 177.0466211 114.03103069 178.68041992 130.03564453 C178.8156936 133.09968093 178.84699325 136.1402064 178.81640625 139.20703125 C178.80738281 140.30160645 178.79835938 141.39618164 178.7890625 142.52392578 C178.14965992 172.74901875 161.63358377 202.57076113 141.9296875 224.8515625 C140.1391852 226.89690581 140.1391852 226.89690581 140.61791992 228.99755859 C141.45536881 231.29147537 142.4700698 232.76855439 144.00390625 234.6640625 C144.80973145 235.67895752 144.80973145 235.67895752 145.63183594 236.71435547 C146.49663574 237.79354248 146.49663574 237.79354248 147.37890625 238.89453125 C168.18297341 265.56218322 180.46125024 294.90367007 178.37890625 329.08203125 C176.4633588 344.52489833 167.21358363 357.48672575 155.37890625 367.08203125 C126.66102251 387.5603301 87.64974958 386.92908169 54.28515625 381.73828125 C52.3515625 381.4134375 52.3515625 381.4134375 50.37890625 381.08203125 C50.20294922 381.63455566 50.02699219 382.18708008 49.84570312 382.75634766 C39.3705782 414.99539076 20.15067159 446.40456231 -10.30859375 462.83203125 C-25.16659024 470.02659973 -40.89036202 470.94219553 -56.62109375 466.08203125 C-65.82565948 462.41515386 -74.15568614 457.61048487 -81.62109375 451.08203125 C-82.25789062 450.58703125 -82.8946875 450.09203125 -83.55078125 449.58203125 C-101.04943858 435.5268848 -113.14724897 412.2009326 -121.62109375 391.83203125 C-121.92418457 391.10459717 -122.22727539 390.37716309 -122.53955078 389.62768555 C-123.7475706 386.63317252 -124.62109375 384.34138128 -124.62109375 381.08203125 C-125.46812866 381.21834961 -125.46812866 381.21834961 -126.33227539 381.35742188 C-160.37385645 386.65149689 -198.72501861 387.9879791 -228.62109375 368.08203125 C-241.52502977 358.57638972 -250.56862353 344.99915315 -253.30078125 329.078125 C-257.32065976 291.47755403 -238.33182705 258.92007391 -215.73046875 230.453125 C-215.364375 230.00066406 -214.99828125 229.54820312 -214.62109375 229.08203125 C-216.21289662 225.46429745 -218.45025362 222.70501425 -220.93359375 219.64453125 C-240.54797462 194.66119723 -256.48006763 163.66409672 -253.62109375 131.08203125 C-251.34167639 114.38944527 -243.69714737 100.38048494 -230.3515625 90.03125 C-199.69912334 68.1491797 -161.0195488 70.50251084 -125.62109375 75.08203125 C-125.4008252 74.54537842 -125.18055664 74.00872559 -124.95361328 73.45581055 C-115.01324638 49.38683474 -104.01369706 27.74671449 -85.62109375 9.08203125 C-84.8940625 8.34210937 -84.16703125 7.6021875 -83.41796875 6.83984375 C-60.40853722 -15.06172627 -25.9304568 -18.97444752 0 0 Z M-66.37890625 36.1875 C-77.18774282 49.24660829 -88.81693571 66.36992393 -92.62109375 83.08203125 C-85.19224991 85.9652867 -77.62847588 88.41151344 -70.05859375 90.89453125 C-60.70820881 93.96164684 -51.48394487 97.10295099 -42.53125 101.21875 C-34.8230123 103.50535474 -27.18165982 99.20795997 -20.05859375 96.45703125 C-10.19910529 92.69866476 -0.32786092 89.25454518 9.83813477 86.41552734 C10.68947998 86.16367676 11.5408252 85.91182617 12.41796875 85.65234375 C13.16256348 85.44367676 13.9071582 85.23500977 14.67431641 85.02001953 C16.53390075 84.2137439 16.53390075 84.2137439 17.23730469 82.26464844 C17.41501533 79.5254533 16.78462564 78.06363931 15.60546875 75.58984375 C15.19731934 74.72657471 14.78916992 73.86330566 14.36865234 72.97387695 C13.69310303 71.60428833 13.69310303 71.60428833 13.00390625 70.20703125 C12.54709473 69.26754639 12.0902832 68.32806152 11.61962891 67.36010742 C2.94276873 49.83992812 -8.8070578 29.86714957 -27.62109375 22.08203125 C-42.99954302 17.37238116 -56.45162051 24.70538009 -66.37890625 36.1875 Z M-213.46875 118.96484375 C-215.0406106 120.93449708 -216.35850287 122.90270772 -217.62109375 125.08203125 C-217.96011719 125.66339844 -218.29914063 126.24476563 -218.6484375 126.84375 C-223.20292856 136.51941996 -221.14816605 148.71859671 -218.00390625 158.4921875 C-211.8370679 174.50157858 -202.64178943 189.94477812 -191.62109375 203.08203125 C-188.61427575 201.74203627 -186.62346766 200.28357834 -184.37109375 197.89453125 C-180.63506979 194.0560425 -176.69362977 190.55825584 -172.62109375 187.08203125 C-171.65042969 186.24542969 -170.67976563 185.40882813 -169.6796875 184.546875 C-162.98221969 178.80297273 -156.13786624 173.30877366 -149.10546875 167.98046875 C-145.05863502 164.88807694 -145.09069918 162.37647696 -144.3515625 157.48828125 C-144.09972766 155.88279394 -143.84777009 154.27732588 -143.59570312 152.671875 C-143.20528964 150.15415581 -142.81687798 147.63615486 -142.43139648 145.11767578 C-140.94650446 135.45765509 -139.3084905 125.93987425 -136.79350281 116.48620605 C-135.91244752 113.04565005 -135.27816481 110.456322 -136.62109375 107.08203125 C-177.62209648 102.1242662 -177.62209648 102.1242662 -213.46875 118.96484375 Z M70.37890625 105.95703125 C69.49992676 106.03542236 68.62094727 106.11381348 67.71533203 106.19458008 C65.59389716 106.41404611 63.48378022 106.73829175 61.37890625 107.08203125 C60.00457618 109.83069139 60.6995877 111.15753805 61.41796875 114.12890625 C61.66554932 115.18730713 61.91312988 116.24570801 62.16821289 117.33618164 C62.4439917 118.48981201 62.71977051 119.64344238 63.00390625 120.83203125 C64.85409884 128.60958537 66.50003746 136.2605068 67.4375 144.1953125 C68.38298554 159.04057958 68.38298554 159.04057958 75.70703125 171.14990234 C78.48295177 173.00889351 81.42448966 174.52810606 84.37890625 176.08203125 C86.66840976 177.78131903 88.80165934 179.63687695 90.94140625 181.51953125 C91.47451416 181.97432861 92.00762207 182.42912598 92.55688477 182.89770508 C97.36024844 186.99938023 102.00453975 191.26864383 106.625 195.57421875 C109.4769805 198.17134142 112.39934166 200.63343472 115.37890625 203.08203125 C119.63528555 200.04284035 122.39393041 196.5567378 125.19140625 192.20703125 C125.62227539 191.54501709 126.05314453 190.88300293 126.49707031 190.20092773 C127.80612824 188.1704388 129.09620521 186.12925608 130.37890625 184.08203125 C130.75515137 183.48503418 131.13139648 182.88803711 131.51904297 182.27294922 C140.34067355 168.10463295 149.58216183 149.41558627 145.76171875 132.3203125 C142.78446977 122.87479249 137.46026241 116.43168052 128.75390625 111.70703125 C110.71483815 103.48467824 89.70360716 104.14588215 70.37890625 105.95703125 Z M-103.62109375 115.08203125 C-104.45792725 118.70623249 -105.28996609 122.33151762 -106.12109375 125.95703125 C-106.35957031 126.98957031 -106.59804687 128.02210938 -106.84375 129.0859375 C-107.06933594 130.07207031 -107.29492188 131.05820313 -107.52734375 132.07421875 C-107.73681641 132.9854248 -107.94628906 133.89663086 -108.16210938 134.83544922 C-108.68781662 137.02645361 -108.68781662 137.02645361 -108.62109375 139.08203125 C-102.71917481 136.85605029 -97.40586071 133.69073743 -91.93359375 130.58203125 C-90.34708008 129.69064453 -90.34708008 129.69064453 -88.72851562 128.78125 C-87.71982422 128.21019531 -86.71113281 127.63914063 -85.671875 127.05078125 C-84.75059814 126.52935547 -83.82932129 126.00792969 -82.88012695 125.47070312 C-80.53200768 124.14767179 -80.53200768 124.14767179 -78.62109375 122.08203125 C-82.03444585 120.90550653 -85.4522697 119.74254951 -88.87109375 118.58203125 C-89.83917969 118.24816406 -90.80726563 117.91429687 -91.8046875 117.5703125 C-92.73925781 117.25449219 -93.67382812 116.93867188 -94.63671875 116.61328125 C-95.49555664 116.32001953 -96.35439453 116.02675781 -97.23925781 115.72460938 C-99.85358301 114.90838438 -99.85358301 114.90838438 -103.62109375 115.08203125 Z M15.25390625 117.95703125 C13.85591797 118.36115234 13.85591797 118.36115234 12.4296875 118.7734375 C11.10130859 119.16982422 11.10130859 119.16982422 9.74609375 119.57421875 C8.52575439 119.93555908 8.52575439 119.93555908 7.28076172 120.30419922 C5.18711603 120.91680142 5.18711603 120.91680142 4.37890625 123.08203125 C8.0858394 125.18867175 11.79469706 127.29190122 15.50390625 129.39453125 C16.550625 129.98943359 17.59734375 130.58433594 18.67578125 131.19726562 C20.20332031 132.06254883 20.20332031 132.06254883 21.76171875 132.9453125 C22.69387207 133.47423096 23.62602539 134.00314941 24.58642578 134.5480957 C27.48138941 136.13832621 30.41576196 137.62339958 33.37890625 139.08203125 C32.99265902 130.70046636 30.85337195 123.06937636 28.37890625 115.08203125 C23.77417157 115.08203125 19.64119739 116.6414558 15.25390625 117.95703125 Z M-44.703125 141.90625 C-45.30488052 142.20360046 -45.90663605 142.50095093 -46.52662659 142.80731201 C-48.49972225 143.78672977 -50.46715378 144.7768233 -52.43359375 145.76953125 C-53.10892151 146.10904816 -53.78424927 146.44856506 -54.4800415 146.79837036 C-71.59925397 155.42481885 -87.89038937 165.16095902 -103.93359375 175.64453125 C-104.98530762 176.32378662 -106.03702148 177.00304199 -107.12060547 177.70288086 C-108.08627441 178.34491455 -109.05194336 178.98694824 -110.046875 179.6484375 C-110.90708252 180.21506104 -111.76729004 180.78168457 -112.65356445 181.36547852 C-114.9197912 183.34262708 -115.27853707 184.14458248 -115.62109375 187.08203125 C-115.72405762 187.90904541 -115.82702148 188.73605957 -115.93310547 189.58813477 C-116.85195783 201.17547318 -116.77189056 212.76876389 -116.75146484 224.38549805 C-116.74611125 228.00769242 -116.75143238 231.62976254 -116.7578125 235.25195312 C-116.78132773 249.61161023 -116.78132773 249.61161023 -116.30078125 263.9609375 C-116.24390137 265.05092041 -116.18702148 266.14090332 -116.12841797 267.26391602 C-115.38781343 271.37787088 -113.89448446 274.01905472 -110.68261719 276.70019531 C-109.9559082 277.16135742 -109.22919922 277.62251953 -108.48046875 278.09765625 C-107.66497559 278.62190186 -106.84948242 279.14614746 -106.00927734 279.6862793 C-104.70337646 280.50092651 -104.70337646 280.50092651 -103.37109375 281.33203125 C-102.47084473 281.9041333 -101.5705957 282.47623535 -100.64306641 283.06567383 C-97.97769514 284.75206924 -95.3021191 286.42065939 -92.62109375 288.08203125 C-91.92274414 288.51628418 -91.22439453 288.95053711 -90.50488281 289.39794922 C-81.99124283 294.66611815 -73.31843739 299.68788863 -64.48828125 304.40625 C-60.97540864 306.29076728 -57.61662935 308.33648362 -54.25390625 310.4765625 C-45.32600002 316.22139624 -45.32600002 316.22139624 -35.14794922 317.86914062 C-29.95285207 316.38635328 -25.56274861 313.60568468 -21.08105469 310.65380859 C-17.67487104 308.4774479 -14.11328885 306.65743213 -10.52978516 304.79296875 C0.60268388 298.95042405 11.34008819 292.43075706 21.91894531 285.64599609 C24.33330911 284.11102046 26.77134738 282.62083272 29.21484375 281.1328125 C30.687528 280.20131829 32.15895597 279.26783388 33.62890625 278.33203125 C34.63993408 277.73346313 34.63993408 277.73346313 35.67138672 277.12280273 C38.32741216 275.38007111 40.05079535 274.16340349 40.99389648 271.05517578 C41.27502388 268.71472078 41.35783135 266.4384995 41.37890625 264.08203125 C41.47812965 262.69354999 41.5835105 261.30549381 41.6953125 259.91796875 C42.49717513 246.35529798 42.6721989 232.78099333 42.43312073 219.19848633 C42.37001414 215.09609638 42.42980851 211.0162204 42.57121277 206.91607666 C43.37902922 193.14304946 43.37902922 193.14304946 38.64355469 180.71484375 C34.07736187 176.51203599 28.77879819 173.9225775 23.16015625 171.39013672 C19.57290653 169.70294535 16.29016163 167.65966724 12.93945312 165.55004883 C-14.89447045 145.72418172 -14.89447045 145.72418172 -44.703125 141.90625 Z M-158.55859375 218.39453125 C-159.30044922 219.08482422 -160.04230469 219.77511719 -160.80664062 220.48632812 C-161.51755859 221.15341797 -162.22847656 221.82050781 -162.9609375 222.5078125 C-163.61441162 223.12052002 -164.26788574 223.73322754 -164.94116211 224.36450195 C-166.81917143 226.1784567 -166.81917143 226.1784567 -168.62109375 229.08203125 C-166.74769255 230.81295696 -164.87243093 232.54179288 -162.99609375 234.26953125 C-162.47402344 234.75228516 -161.95195312 235.23503906 -161.4140625 235.73242188 C-155.96025204 241.60396849 -155.96025204 241.60396849 -149.62109375 245.08203125 C-149.62109375 233.86203125 -149.62109375 222.64203125 -149.62109375 211.08203125 C-152.55498382 211.08203125 -156.50956912 216.4659333 -158.55859375 218.39453125 Z M75.37890625 212.08203125 C75.37890625 222.97203125 75.37890625 233.86203125 75.37890625 245.08203125 C80.46257545 241.26927935 84.57287188 238.13267769 88.87890625 233.70703125 C89.73484375 232.83304688 90.59078125 231.9590625 91.47265625 231.05859375 C92.10171875 230.40632813 92.73078125 229.7540625 93.37890625 229.08203125 C91.78432281 224.92823981 88.73669684 222.35646453 85.50390625 219.45703125 C84.70919922 218.72226563 84.70919922 218.72226563 83.8984375 217.97265625 C81.11972274 215.44905922 78.77436275 213.7797595 75.37890625 212.08203125 Z M-191.62109375 253.08203125 C-202.70095567 267.61535663 -212.10105605 282.97522048 -218.62109375 300.08203125 C-218.88792969 300.77039063 -219.15476563 301.45875 -219.4296875 302.16796875 C-221.91676808 310.02371292 -222.15831902 321.43249464 -219.05859375 329.08203125 C-217.95846253 331.15166459 -217.95846253 331.15166459 -216.62109375 333.08203125 C-216.15832031 333.77683594 -215.69554687 334.47164063 -215.21875 335.1875 C-207.63719179 345.06762353 -195.01057946 348.7123193 -183.17578125 350.64453125 C-176.97352801 351.37099348 -170.73178983 351.26632359 -164.49609375 351.26953125 C-162.65144531 351.28790039 -162.65144531 351.28790039 -160.76953125 351.30664062 C-152.18510078 351.32016651 -144.07942843 350.51723224 -135.62109375 349.08203125 C-137.18189569 339.27307963 -139.06221015 329.5360433 -141.01660156 319.79907227 C-141.40983068 317.83560998 -141.7975766 315.87114194 -142.18359375 313.90625 C-142.43665283 312.62057129 -142.68971191 311.33489258 -142.95043945 310.01025391 C-143.41423922 307.29364003 -143.78395676 304.69452154 -144.03198242 301.96240234 C-144.44080684 294.06341962 -144.44080684 294.06341962 -148.421875 287.59765625 C-150.10679223 286.38503724 -150.10679223 286.38503724 -151.93359375 285.33203125 C-153.20777152 284.45739498 -154.47985974 283.57970799 -155.75 282.69921875 C-156.39598145 282.27092773 -157.04196289 281.84263672 -157.70751953 281.40136719 C-160.76965656 279.2901413 -163.55979215 276.8869678 -166.37109375 274.45703125 C-166.90669922 274.00070312 -167.44230469 273.544375 -167.99414062 273.07421875 C-172.16885673 269.50906242 -176.25758372 265.85194231 -180.32421875 262.1640625 C-182.59889019 260.10215795 -184.88424874 258.05388083 -187.18359375 256.01953125 C-187.82425781 255.45105469 -188.46492188 254.88257813 -189.125 254.296875 C-190.42927526 252.97697064 -190.42927526 252.97697064 -191.62109375 253.08203125 Z M113.375 255.0234375 C112.53066406 255.88839844 111.68632812 256.75335938 110.81640625 257.64453125 C106.48975595 262.00784807 102.06574856 266.11372923 97.37890625 270.08203125 C96.41210938 270.91476562 95.4453125 271.7475 94.44921875 272.60546875 C93.36361391 273.53554468 92.27767518 274.46523102 91.19140625 275.39453125 C89.63171065 276.72936903 88.07306286 278.06551091 86.52563477 279.41455078 C84.37890625 281.08203125 84.37890625 281.08203125 81.19897461 282.97998047 C74.89147215 286.89333151 70.94946588 290.29397388 69.1759491 297.70649719 C68.38433785 301.98190597 67.82376285 306.26491684 67.31640625 310.58203125 C67.07760181 312.31194294 66.8334864 314.04113004 66.58398438 315.76953125 C66.21373537 318.33591228 65.84694129 320.90200203 65.50204468 323.47192383 C64.31978922 332.12978051 62.4160507 340.59059968 60.37890625 349.08203125 C70.07831618 350.71103232 79.4126545 351.43766125 89.25390625 351.39453125 C90.56584961 351.3903418 91.87779297 351.38615234 93.22949219 351.38183594 C109.06148657 351.19733216 126.40269926 349.67273802 138.37890625 338.08203125 C144.49281147 330.75893145 146.95374282 323.44018736 146.6796875 313.94921875 C144.35319092 291.7719656 130.9511569 269.52594712 116.37890625 253.08203125 C115.03359143 252.96606162 115.03359143 252.96606162 113.375 255.0234375 Z M-108.62109375 317.08203125 C-106.82602568 329.24160258 -106.82602568 329.24160258 -103.62109375 341.08203125 C-100.77338999 342.50588313 -99.40040771 341.58983837 -96.39453125 340.6484375 C-95.36328125 340.32939453 -94.33203125 340.01035156 -93.26953125 339.68164062 C-91.64917969 339.16827148 -91.64917969 339.16827148 -89.99609375 338.64453125 C-88.908125 338.30615234 -87.82015625 337.96777344 -86.69921875 337.61914062 C-84.00439599 336.77996336 -81.31189383 335.93400211 -78.62109375 335.08203125 C-80.74259201 332.79054908 -82.79804491 331.2699015 -85.53515625 329.77734375 C-86.29699219 329.35839844 -87.05882812 328.93945312 -87.84375 328.5078125 C-88.63652344 328.07855469 -89.42929688 327.64929688 -90.24609375 327.20703125 C-91.80078125 326.35546875 -93.35546875 325.50390625 -94.91015625 324.65234375 C-95.67875977 324.2337207 -96.44736328 323.81509766 -97.23925781 323.38378906 C-101.04472946 321.30396385 -104.833 319.19329828 -108.62109375 317.08203125 Z M26.69140625 320.58203125 C21.14698358 324.04612142 15.51964545 327.32478038 9.78637695 330.46679688 C6.50600945 332.1781354 6.50600945 332.1781354 4.37890625 335.08203125 C8.00241246 336.25337347 11.62794624 337.41830927 15.25390625 338.58203125 C16.28644531 338.91589844 17.31898438 339.24976563 18.3828125 339.59375 C19.36894531 339.90957031 20.35507812 340.22539062 21.37109375 340.55078125 C22.2822998 340.84404297 23.19350586 341.13730469 24.13232422 341.43945312 C26.30994255 342.17369695 26.30994255 342.17369695 28.37890625 342.08203125 C30.76026417 333.77496874 32.97019187 325.76721173 33.37890625 317.08203125 C31.13875664 317.08203125 28.46753806 319.46793169 26.69140625 320.58203125 Z M-43.6171875 355.953125 C-44.63828613 356.35869629 -45.65938477 356.76426758 -46.71142578 357.18212891 C-47.81599121 357.62347168 -48.92055664 358.06481445 -50.05859375 358.51953125 C-64.05897408 364.0247184 -78.2512766 368.63678571 -92.62109375 373.08203125 C-90.43682701 380.31322149 -87.45502049 386.78308915 -83.93359375 393.45703125 C-83.39758545 394.47563232 -82.86157715 395.4942334 -82.30932617 396.54370117 C-78.57348658 403.53458525 -74.74057945 410.00329365 -69.62109375 416.08203125 C-68.91597656 416.94699219 -68.21085937 417.81195313 -67.484375 418.703125 C-60.25444222 427.19482615 -51.97699134 434.40031817 -40.62109375 436.08203125 C-30.56590909 436.68919262 -22.54983442 432.46450033 -14.43359375 426.89453125 C0.70452399 411.75641351 10.68590683 392.84747097 18.37890625 373.08203125 C17.63133057 372.8617627 16.88375488 372.64149414 16.11352539 372.41455078 C1.13005238 367.9669575 -13.50655926 363.22997192 -27.93725586 357.18212891 C-28.90800049 356.77655762 -29.87874512 356.37098633 -30.87890625 355.953125 C-32.14951904 355.4106311 -32.14951904 355.4106311 -33.44580078 354.85717773 C-37.39807914 353.44881816 -39.88359167 354.44497133 -43.6171875 355.953125 Z " fill="#2FA2FF" transform="translate(293.62109375,26.91796875)"/>
<path d="M0 0 C0.74241943 0.00418945 1.48483887 0.00837891 2.24975586 0.01269531 C8.11055248 0.13286433 13.19807748 1.01380354 18.625 3.3125 C19.29402344 3.56773437 19.96304688 3.82296875 20.65234375 4.0859375 C31.39365242 8.72277966 40.19145801 18.62890298 44.90625 29.1796875 C49.99727588 42.59817714 50.03065851 55.9228318 44.37109375 69.26953125 C37.35372052 82.94098047 27.52316013 90.69333811 13.0859375 95.56640625 C0.35797751 99.42520047 -12.84718673 97.34041383 -24.44921875 91.140625 C-36.72598526 83.46969479 -43.55000691 73.04247882 -47.9609375 59.515625 C-50.45402174 46.25053525 -48.00433249 33.05690903 -41.1875 21.5 C-33.77662047 10.69770102 -23.24344914 3.67055513 -10.4699707 0.6875 C-6.97580078 0.06204318 -3.54288145 -0.02755529 0 0 Z " fill="#2FA2FF" transform="translate(256.375,206.6875)"/>
</svg>
