<?xml version="1.0" encoding="UTF-8"?>
<svg version="1.1" xmlns="http://www.w3.org/2000/svg" width="512" height="512">
<path d="M0 0 C4.37570026 2.23646902 8.43208522 6.04008596 10.8203125 10.3359375 C12.87551404 17.73338468 13.09384684 24.6421749 13.04736328 32.29125977 C13.04765533 33.56053818 13.04794739 34.82981659 13.04824829 36.13755798 C13.0488183 39.59151818 13.03712156 43.04533732 13.02310038 46.49926496 C13.01053382 50.11871947 13.00941787 53.73817779 13.00704956 57.35765076 C13.00085211 64.19974684 12.98446496 71.04177844 12.96435058 77.88384622 C12.94193735 85.67833526 12.93098455 93.4728275 12.92095971 101.26734078 C12.90009705 117.290244 12.86495509 133.3130825 12.8203125 149.3359375 C13.81607237 149.33225033 14.81183224 149.32856316 15.83776665 149.32476425 C40.0840484 149.23590517 64.330309 149.17020559 88.57671928 149.12868881 C100.30218168 149.10807717 112.02753641 149.07998317 123.75292969 149.03417969 C133.97462097 148.99426928 144.19623426 148.96849453 154.41800129 148.95958352 C159.82870142 148.95437593 165.23917846 148.94216509 170.64980698 148.91301727 C175.7469388 148.88578188 180.84375652 148.87750896 185.94095421 148.88350677 C187.80733766 148.88241017 189.67373208 148.8745049 191.54005241 148.8591156 C202.50659232 148.77315562 212.08014181 148.76700886 221.1953125 155.7109375 C227.28884859 161.80447359 229.87050131 167.60590311 230.1953125 176.1484375 C229.89704839 187.72392564 223.34226541 194.89996791 216.30810547 203.50537109 C213.9402875 206.41871195 211.63262498 209.37850229 209.3203125 212.3359375 C208.40263136 213.50413224 207.48466212 214.67210072 206.56640625 215.83984375 C204.74427872 218.15873874 202.92412456 220.47916265 201.10546875 222.80078125 C196.91030908 228.15288848 192.7020267 233.49236075 188.43945312 238.79101562 C183.66794544 244.72265459 178.98503772 250.70937769 174.3828125 256.7734375 C169.56019115 263.1242324 164.60918691 269.3514904 159.55932617 275.52270508 C154.67796016 281.49095216 149.90854153 287.54162378 145.16308594 293.61816406 C142.88797317 296.52865378 140.6036288 299.43188246 138.3203125 302.3359375 C137.40360272 303.50257029 136.48693602 304.66923694 135.5703125 305.8359375 C133.73697917 308.16927083 131.90364583 310.50260417 130.0703125 312.8359375 C129.61664307 313.41335693 129.16297363 313.99077637 128.69555664 314.58569336 C127.77816241 315.7532416 126.86068183 316.92072199 125.94311523 318.08813477 C123.66187005 320.9907654 121.38210036 323.89453024 119.10546875 326.80078125 C114.91030908 332.15288848 110.7020267 337.49236075 106.43945312 342.79101562 C101.66794544 348.72265459 96.98503772 354.70937769 92.3828125 360.7734375 C87.56019115 367.1242324 82.60918691 373.3514904 77.55932617 379.52270508 C72.6885416 385.47801467 67.92904704 391.51526936 63.19384766 397.57861328 C60.76233216 400.68953553 58.32220046 403.79368742 55.8828125 406.8984375 C55.43405762 407.47029785 54.98530273 408.0421582 54.52294922 408.63134766 C53.29048189 410.20091599 52.05546188 411.76847889 50.8203125 413.3359375 C50.15128906 414.23570312 49.48226562 415.13546875 48.79296875 416.0625 C45.02097089 420.40963417 39.91222878 422.73765649 34.296875 423.82421875 C27.61297604 424.19320371 22.32670669 422.0270369 16.8203125 418.3359375 C12.41069692 413.81608153 10.56819035 409.98614503 10.57980347 403.6918335 C10.57567947 401.96709808 10.57567947 401.96709808 10.57147217 400.20751953 C10.582258 398.32154053 10.582258 398.32154053 10.59326172 396.39746094 C10.59382601 395.05698658 10.59350893 393.7165116 10.59237671 392.3760376 C10.59180288 388.73997259 10.60356208 385.10403953 10.61752462 381.46800518 C10.63002691 377.66701107 10.63120209 373.86601394 10.63357544 370.06500244 C10.63979168 362.86858192 10.65620445 355.67222217 10.67627442 348.47582841 C10.69862893 340.28242971 10.70962572 332.08902812 10.71966529 323.89560652 C10.74057056 307.04234836 10.77574934 290.18914936 10.8203125 273.3359375 C9.8348601 273.34054646 8.84940769 273.34515543 7.83409309 273.34990406 C-16.16181191 273.46098061 -40.1576835 273.54310359 -64.15379143 273.59499836 C-75.75821962 273.62076237 -87.36247781 273.65587864 -98.96679688 273.71313477 C-109.08301316 273.76302468 -119.19910631 273.79524161 -129.3154422 273.80637997 C-134.67030784 273.81288921 -140.02482125 273.82815053 -145.37957382 273.86458778 C-150.42422388 273.89863537 -155.46837805 273.90897271 -160.5131321 273.90147591 C-162.36017493 273.90284653 -164.20723509 273.9127266 -166.05417824 273.93196487 C-185.78209029 274.12730135 -185.78209029 274.12730135 -194.03329277 266.65797901 C-200.6942588 259.77527139 -202.60527975 252.20424743 -202.80859375 242.83984375 C-201.27530471 234.2972334 -196.10043404 227.44459267 -190.7421875 220.8359375 C-189.49846639 219.26971508 -188.25498379 217.70330323 -187.01171875 216.13671875 C-186.37830566 215.34475098 -185.74489258 214.5527832 -185.09228516 213.73681641 C-182.00338321 209.85932576 -178.96807028 205.94054982 -175.9296875 202.0234375 C-174.76304311 200.52342017 -173.59637697 199.02341977 -172.4296875 197.5234375 C-167.9919706 191.81039542 -163.58329302 186.07530336 -159.1796875 180.3359375 C-152.93450059 172.19637722 -146.65578981 164.08417632 -140.35253906 155.98950195 C-136.94788846 151.61533039 -133.5550289 147.2327638 -130.1796875 142.8359375 C-125.59674033 136.86604579 -120.97558263 130.92639257 -116.3515625 124.98828125 C-112.94726321 120.61449673 -109.55471156 116.23235043 -106.1796875 111.8359375 C-101.59674033 105.86604579 -96.97558263 99.92639257 -92.3515625 93.98828125 C-88.94726321 89.61449673 -85.55471156 85.23235043 -82.1796875 80.8359375 C-77.59674033 74.86604579 -72.97558263 68.92639257 -68.3515625 62.98828125 C-64.94726321 58.61449673 -61.55471156 54.23235043 -58.1796875 49.8359375 C-54.20069729 44.6527792 -50.19427286 39.49156677 -46.1796875 34.3359375 C-42.00188508 28.96946692 -37.82963609 23.59898346 -33.6796875 18.2109375 C-32.88820312 17.18742187 -32.09671875 16.16390625 -31.28125 15.109375 C-29.99333572 13.40971118 -28.73124849 11.68959583 -27.515625 9.9375 C-20.74904154 0.20375161 -11.87289827 -3.61719123 0 0 Z " fill="#70C673" transform="translate(245.1796875,46.6640625)"/>
</svg>
